
<svg width="16px" height="16px" viewBox="0 0 16 16" version="1.1" xmlns="http://www.w3.org/2000/svg" xmlns:xlink="http://www.w3.org/1999/xlink">
    <g id="Symbols" stroke="none" stroke-width="1" fill="none" fill-rule="evenodd">
        <g id="Components/Picker/Picked" transform="translate(-208.000000, -16.000000)" fill="#D0C9D6">
            <g id="Icons/24px/Calendar">
                <g transform="translate(204.000000, 12.000000)">
                    <g id="calendar-date-2" transform="translate(4.000000, 4.000000)">
                        <path d="M15,2 C15.552,2 16,2.448 16,3 L16,15 C16,15.552 15.552,16 15,16 L1,16 C0.448,16 0,15.552 0,15 L0,3 C0,2.448 0.448,2 1,2 L3,2 L3,0 L6,0 L6,2 L10,2 L10,0 L13,0 L13,2 L15,2 Z M14,14 L14,5 L2,5 L2,14 L14,14 Z M4,7 L6,7 L6,9 L4,9 L4,7 Z M7,7 L9,7 L9,9 L7,9 L7,7 Z" id="Combined-Shape" fill-rule="nonzero"></path>
                    </g>
                </g>
            </g>
        </g>
    </g>
</svg>