
<svg width="20px" height="20px" viewBox="0 0 20 20" version="1.1" xmlns="http://www.w3.org/2000/svg" xmlns:xlink="http://www.w3.org/1999/xlink">
    <g id="Symbols" stroke="none" stroke-width="1" fill="none" fill-rule="evenodd">
        <g id="Components/Loading/Lazy-Loading" transform="translate(-2.000000, -2.000000)" fill="#1A051D" fill-rule="nonzero">
            <g id="Icons/24px/Loading">
                <g>
                    <path d="M4.20799067,15.4916511 C4.37363367,15.8602538 4.20910236,16.2933454 3.84049969,16.4589885 C3.47189702,16.6246315 3.03880533,16.4601001 2.87316233,16.0914975 C2.30025334,14.8166125 2,13.4284881 2,12 C2,6.47726393 6.47726393,2 12,2 C17.5227361,2 22,6.47726393 22,12 C22,17.5227361 17.5227361,22 12,22 C9.65339375,22 7.42972204,21.1880634 5.65266762,19.7280729 C5.34042363,19.4715398 5.29526102,19.0104548 5.55179411,18.6982109 C5.8083272,18.3859669 6.26941212,18.3408043 6.58165611,18.5973373 C8.09933878,19.8442335 9.99550063,20.5365854 12,20.5365854 C16.7145145,20.5365854 20.5365854,16.7145145 20.5365854,12 C20.5365854,7.28548552 16.7145145,3.46341463 12,3.46341463 C7.28548552,3.46341463 3.46341463,7.28548552 3.46341463,12 C3.46341463,13.2207693 3.71946808,14.4045498 4.20799067,15.4916511 Z" id="Path"></path>
                </g>
            </g>
        </g>
    </g>
</svg>