
<svg width="14px" height="14px" viewBox="0 0 14 14" version="1.1" xmlns="http://www.w3.org/2000/svg" xmlns:xlink="http://www.w3.org/1999/xlink">
    <g id="Symbols" stroke="none" stroke-width="1" fill="none" fill-rule="evenodd">
        <g id="Components/Star/Disabled" fill="#FFF8E7" fill-rule="nonzero">
            <g id="Path">
                <path d="M7.45348721,0.281186286 L9.34276413,4.10833889 L13.5672116,4.72311325 C13.757567,4.75056105 13.9157892,4.88378571 13.9752513,5.06668672 C14.0347135,5.24958774 13.9850841,5.45038614 13.847262,5.58452633 L10.7897923,8.56120058 L11.5114839,12.7686385 C11.5439534,12.9582161 11.4660083,13.149792 11.3104074,13.2628508 C11.1548065,13.3759096 10.9485216,13.3908537 10.7782501,13.3014025 L7.00030374,11.3179654 L3.2217499,13.3032249 C3.05134317,13.3922753 2.84519112,13.3770594 2.68970517,13.2639553 C2.53421922,13.1508512 2.45626422,12.9594009 2.48851606,12.7698535 L3.21020769,8.56484549 L0.152737997,5.58817124 C0.0149158588,5.45403105 -0.0347135095,5.25323264 0.0247486683,5.07033163 C0.0842108462,4.88743061 0.242433043,4.75420596 0.43278837,4.72675816 L4.65723587,4.10894638 L6.54651279,0.281793771 C6.63176302,0.10933318 6.807431,0 6.99981146,0 C7.19219192,0 7.36800603,0.10884005 7.45348721,0.281186286 Z"></path>
            </g>
        </g>
    </g>
</svg>